<svg width="33" height="31" viewBox="0 0 33 31" fill="none" xmlns="http://www.w3.org/2000/svg">
<path d="M16.3389 0.366211C19.1715 0.366217 22.1278 0.824734 24.4082 2.21191C26.7622 3.64397 28.3086 6.01688 28.3086 9.55859C28.3086 9.5793 28.3059 9.59973 28.3047 9.62012C31.9368 9.91945 32.7734 11.4496 32.7734 16.3877C32.7734 22.0098 31.6889 23.2148 26.6289 23.2148C21.5689 23.2148 20.4844 22.0098 20.4844 16.3877C20.4844 10.8861 21.5228 9.61456 26.3086 9.5625C26.3086 9.5612 26.3086 9.5599 26.3086 9.55859C26.3086 6.71055 25.1228 4.98679 23.3691 3.91992C21.5419 2.80839 19.0132 2.36622 16.3389 2.36621C13.667 2.36625 11.1638 2.81734 9.36035 3.93066C7.62899 4.99949 6.46094 6.72259 6.46094 9.55859C6.46094 9.5599 6.45997 9.5612 6.45996 9.5625C11.2499 9.61374 12.2891 10.8842 12.2891 16.3877C12.289 22.0098 11.2045 23.2148 6.14453 23.2148C1.08455 23.2148 1.5882e-05 22.0098 0 16.3877C0 11.4518 0.835874 9.92041 4.46387 9.62012C4.46263 9.59975 4.46094 9.57928 4.46094 9.55859C4.46094 6.0402 5.97867 3.66745 8.30957 2.22852C10.5683 0.834197 13.5038 0.366245 16.3389 0.366211ZM6.14453 11.5605C3.56584 11.5605 2.91033 11.9263 2.66113 12.2031C2.53217 12.3464 2.34924 12.6447 2.20996 13.3408C2.06828 14.0492 2 15.0228 2 16.3877C2 17.7524 2.06832 18.7253 2.20996 19.4336C2.34916 20.1295 2.53216 20.4279 2.66113 20.5713C2.91025 20.8481 3.5655 21.2148 6.14453 21.2148C8.72357 21.2148 9.37881 20.8481 9.62793 20.5713C9.75691 20.4279 9.9399 20.1295 10.0791 19.4336C10.2207 18.7253 10.2891 17.7524 10.2891 16.3877C10.2891 15.0228 10.2208 14.0492 10.0791 13.3408C9.93982 12.6447 9.75689 12.3464 9.62793 12.2031C9.37873 11.9263 8.72319 11.5605 6.14453 11.5605ZM26.6289 11.5605C24.0502 11.5605 23.3947 11.9263 23.1455 12.2031C23.0165 12.3464 22.8336 12.6447 22.6943 13.3408C22.5527 14.0492 22.4844 15.0228 22.4844 16.3877C22.4844 17.7524 22.5527 18.7253 22.6943 19.4336C22.8335 20.1295 23.0165 20.4279 23.1455 20.5713C23.3946 20.8481 24.0499 21.2148 26.6289 21.2148C29.2079 21.2148 29.8632 20.8481 30.1123 20.5713C30.2413 20.4279 30.4243 20.1295 30.5635 19.4336C30.7051 18.7253 30.7734 17.7524 30.7734 16.3877C30.7734 15.0228 30.7052 14.0492 30.5635 13.3408C30.4242 12.6447 30.2413 12.3464 30.1123 12.2031C29.8631 11.9263 29.2076 11.5605 26.6289 11.5605Z" fill="white"/>
<path d="M12.2882 28.6747C11.8634 28.6747 11.4007 28.6747 10.9229 28.6747C7.90642 28.6747 5.46094 26.2294 5.46094 23.2129" stroke="white" stroke-width="2" stroke-linecap="round" stroke-linejoin="round"/>
</svg>
