<svg width="33" height="33" viewBox="0 0 33 33" fill="none" xmlns="http://www.w3.org/2000/svg">
<path d="M16.3877 0.015625C18.7235 0.015625 21.1034 0.793262 22.917 2.40527C24.6321 3.9298 25.7691 6.13993 25.9141 8.94434C31.3603 10.2256 32.7705 13.4152 32.7705 20.4824C32.7705 30.2861 30.0569 32.6278 17.6201 32.7646L16.3857 32.7715C2.89234 32.7715 4.8148e-06 30.6025 0 20.4824C0 13.4128 1.41139 10.2237 6.8623 8.94336C7.0074 6.13953 8.14365 3.92961 9.8584 2.40527C11.6719 0.793262 14.052 0.0157009 16.3877 0.015625ZM16.3857 10.8936C13.0574 10.8936 10.5226 11.0291 8.57617 11.3535C6.62627 11.6786 5.4751 12.1615 4.75293 12.7031C3.48654 13.6529 2.7002 15.4455 2.7002 20.4824C2.7002 25.5194 3.48654 27.3119 4.75293 28.2617C5.4751 28.8033 6.62629 29.2863 8.57617 29.6113C10.5226 29.9358 13.0574 30.0713 16.3857 30.0713C19.7139 30.0713 22.2479 29.9358 24.1943 29.6113C26.1445 29.2863 27.2963 28.8034 28.0186 28.2617C29.2847 27.3119 30.0713 25.5189 30.0713 20.4824C30.0713 15.4459 29.2847 13.653 28.0186 12.7031C27.2963 12.1615 26.1445 11.6786 24.1943 11.3535C22.2479 11.0291 19.7139 10.8936 16.3857 10.8936ZM16.3877 2.71582C14.6273 2.7159 12.9109 3.30414 11.6523 4.42285C10.6133 5.34646 9.83184 6.68004 9.61035 8.49023C11.1987 8.3132 13.034 8.22348 15.1514 8.2002L16.3857 8.19336C19.0343 8.19337 21.2741 8.27936 23.1641 8.49023C22.9428 6.68015 22.163 5.34644 21.124 4.42285C19.8654 3.30403 18.1482 2.71582 16.3877 2.71582Z" fill="white"/>
</svg>
